<svg width="541" height="328" viewBox="0 0 541 328" fill="none" xmlns="http://www.w3.org/2000/svg">
<path d="M313.595 315.098C313.599 315.04 313.604 314.983 313.608 314.927C315.129 314.927 316.651 314.898 318.171 314.936C319.232 314.964 319.752 314.584 319.733 313.428C319.687 310.412 319.771 307.391 319.636 304.379C319.613 303.872 318.776 303.004 318.288 302.984C315.185 302.855 312.072 302.855 308.968 302.98C308.471 303 307.664 303.819 307.592 304.351C307.395 305.799 307.481 307.292 307.519 308.767C307.569 310.696 306.963 313.387 307.957 314.351C309.063 315.422 311.652 314.916 313.595 315.098ZM339.424 314.919C340.88 314.919 342.341 314.846 343.791 314.94C345.295 315.039 345.964 314.559 345.901 312.915C345.8 310.234 345.819 307.544 345.904 304.862C345.952 303.338 345.335 302.874 343.908 302.904C340.931 302.97 337.951 302.935 334.973 302.891C333.811 302.874 333.263 303.316 333.288 304.536C333.327 306.28 333.283 308.027 333.285 309.772C333.292 314.875 333.295 314.875 338.232 314.918C338.629 314.922 339.027 314.919 339.424 314.919ZM365.757 315.107C365.763 315.054 365.767 315.002 365.772 314.948C367.36 314.948 368.948 314.922 370.535 314.958C371.592 314.983 372.125 314.611 372.108 313.45C372.065 310.498 372.055 307.544 372.104 304.594C372.125 303.26 371.528 302.815 370.301 302.852C368.517 302.908 366.729 302.895 364.943 302.908C359.485 302.951 359.467 302.951 359.496 308.546C359.505 310.547 358.88 313.346 359.904 314.336C361.052 315.447 363.74 314.92 365.757 315.107V315.107ZM287.505 302.906C287.505 302.88 287.505 302.856 287.505 302.831C285.917 302.831 284.329 302.858 282.743 302.82C281.751 302.798 281.281 303.19 281.287 304.227C281.304 307.312 281.307 310.399 281.275 313.484C281.263 314.612 281.745 315.016 282.833 314.996C286.008 314.942 289.184 314.932 292.359 314.946C293.428 314.95 293.929 314.544 293.92 313.411C293.893 310.46 293.897 307.508 293.943 304.558C293.963 303.335 293.419 302.874 292.268 302.898C290.68 302.931 289.092 302.906 287.505 302.906V302.906ZM385.179 315.008C389.24 315.008 393.06 315.044 396.877 314.952C397.257 314.943 397.924 314.155 397.939 313.712C398.037 310.563 398.065 307.406 397.944 304.258C397.924 303.75 397.069 302.868 396.577 302.852C393.208 302.738 389.832 302.776 386.46 302.862C386.025 302.872 385.241 303.43 385.235 303.748C385.147 307.415 385.179 311.086 385.179 315.008ZM215.891 302.488C219.857 302.539 223.825 302.648 227.789 302.556C228.259 302.546 229.067 301.448 229.097 300.822C229.245 297.872 229.237 294.911 229.163 291.956C229.124 290.458 229.64 289.956 231.123 290.003C234.233 290.1 237.352 290.098 240.464 290.004C241.899 289.962 242.276 290.5 242.236 291.879C242.151 294.834 242.293 297.795 242.188 300.747C242.136 302.212 242.689 302.623 244.021 302.595C247.201 302.53 250.383 302.527 253.564 302.548C254.813 302.558 255.339 302.076 255.313 300.759C255.256 297.804 255.355 294.846 255.296 291.89C255.269 290.503 255.756 289.978 257.148 290.022C260.127 290.114 263.112 290.138 266.092 290.074C267.587 290.043 268.047 290.627 267.996 292.1C267.9 294.919 268.011 297.744 267.943 300.566C267.908 301.991 268.348 302.666 269.859 302.626C272.971 302.543 276.087 302.539 279.201 302.575C280.668 302.591 281.169 301.955 281.132 300.5C281.06 297.68 281.176 294.855 281.104 292.035C281.065 290.523 281.652 290.055 283.097 290.095C286.144 290.182 289.196 290.207 292.24 290.086C293.885 290.02 294.305 290.726 294.28 292.214C294.233 295.035 294.327 297.858 294.28 300.679C294.259 301.994 294.787 302.466 296.049 302.447C299.096 302.4 302.145 302.392 305.193 302.452C306.66 302.482 307.236 301.807 307.229 300.403C307.219 297.648 307.269 294.892 307.219 292.139C307.193 290.736 307.604 290.044 309.141 290.09C312.188 290.179 315.239 290.162 318.285 290.095C319.692 290.064 320.144 290.663 320.12 292.018C320.068 294.839 320.159 297.663 320.104 300.483C320.079 301.828 320.517 302.468 321.917 302.444C325.031 302.391 328.145 302.399 331.259 302.42C332.541 302.428 332.977 301.864 332.945 300.57C332.876 297.683 332.967 294.792 332.935 291.904C332.92 290.647 333.356 290.074 334.671 290.095C337.983 290.148 341.297 290.142 344.609 290.091C345.947 290.07 346.347 290.746 346.341 291.951C346.328 294.706 346.421 297.464 346.32 300.215C346.257 301.916 346.929 302.472 348.531 302.431C351.444 302.355 354.361 302.368 357.276 302.422C358.617 302.447 359.172 301.984 359.133 300.555C359.056 297.735 359.175 294.911 359.116 292.09C359.085 290.663 359.5 290.022 361.031 290.066C364.209 290.158 367.392 290.131 370.572 290.067C371.851 290.042 372.365 290.506 372.349 291.814C372.311 294.77 372.395 297.727 372.351 300.683C372.332 301.99 372.872 302.5 374.119 302.499C377.167 302.495 380.215 302.515 383.263 302.578C384.54 302.604 385.032 302.062 385.012 300.775C384.965 297.752 385.036 294.727 384.987 291.704C384.967 290.494 385.391 290.035 386.605 290.056C389.852 290.112 393.101 290.124 396.345 290.044C397.815 290.007 398.147 290.698 398.127 291.999C398.081 294.82 398.176 297.644 398.104 300.466C398.067 301.97 398.491 302.679 400.115 302.632C403.823 302.526 407.533 302.558 411.241 302.534L411.189 302.479C411.189 306.667 411.188 310.855 411.188 315.043L411.239 314.987C407.529 315.028 403.819 315.124 400.109 315.082C398.66 315.064 398.069 315.543 398.103 317.039C398.168 319.927 398.089 322.819 398.139 325.708C398.163 327.132 397.677 327.802 396.176 327.762C392.997 327.675 389.815 327.675 386.633 327.695C385.451 327.703 384.976 327.24 384.993 326.023C385.035 322.999 384.953 319.974 385.003 316.95C385.024 315.723 384.755 315.087 383.365 315.127C380.319 315.215 377.267 315.214 374.219 315.158C372.829 315.132 372.332 315.712 372.353 317.072C372.397 319.894 372.321 322.718 372.368 325.54C372.393 327.02 371.969 327.759 370.327 327.696C367.281 327.58 364.228 327.578 361.181 327.664C359.58 327.711 359.087 327.039 359.116 325.523C359.171 322.702 359.091 319.878 359.124 317.055C359.137 315.891 358.753 315.319 357.529 315.324C354.416 315.34 351.3 315.312 348.187 315.255C346.828 315.23 346.308 315.824 346.336 317.196C346.393 319.883 346.316 322.574 346.349 325.262C346.371 326.898 345.841 327.719 344.035 327.647C340.991 327.524 337.937 327.558 334.889 327.634C333.529 327.668 332.936 327.158 332.944 325.795C332.96 323.04 332.887 320.283 332.959 317.53C333.001 315.91 332.439 315.22 330.776 315.259C327.996 315.324 325.211 315.228 322.428 315.188C320.821 315.166 319.993 315.774 320.069 317.582C320.18 320.199 320.036 322.826 320.115 325.444C320.16 326.971 319.675 327.662 318.079 327.622C315.097 327.546 312.112 327.543 309.132 327.632C307.613 327.676 307.148 327.01 307.177 325.596C307.235 322.908 307.181 320.219 307.247 317.531C307.283 316.046 306.792 315.266 305.205 315.28C302.291 315.308 299.373 315.263 296.459 315.206C294.896 315.176 294.181 315.76 294.249 317.471C294.355 320.155 294.201 322.848 294.271 325.535C294.309 327.064 293.845 327.711 292.228 327.652C289.116 327.539 285.997 327.578 282.883 327.628C281.599 327.65 281.097 327.139 281.119 325.848C281.161 323.227 281.117 320.606 281.116 317.984C281.113 315.148 281.107 315.151 278.392 315.124C274.947 315.091 271.503 315.035 268.056 314.99C268.011 311.439 268.019 307.884 267.871 304.336C267.848 303.792 267.128 302.834 266.707 302.822C263.401 302.718 260.088 302.748 256.784 302.883C256.347 302.902 255.595 303.731 255.577 304.204C255.468 307.355 255.467 310.514 255.573 313.664C255.589 314.12 256.368 314.923 256.807 314.932C260.575 315.015 264.347 314.952 268.117 314.934C268.071 318.424 267.957 321.918 268.005 325.408C268.027 327.003 267.611 327.732 265.899 327.682C263.052 327.598 260.195 327.623 257.349 327.772C255.712 327.858 255.269 327.178 255.301 325.666C255.361 322.843 255.248 320.016 255.329 317.196C255.375 315.655 254.907 315.07 253.303 315.1C249.596 315.174 245.885 315.055 242.175 315.016C242.156 311.527 242.097 308.035 242.144 304.546C242.161 303.268 241.793 302.739 240.461 302.767C237.284 302.835 234.104 302.81 230.925 302.758C229.745 302.739 229.239 303.19 229.253 304.402C229.291 307.423 229.308 310.446 229.256 313.467C229.233 314.727 229.757 315.072 230.924 315.048C234.696 314.972 238.469 314.978 242.243 314.951C242.235 318.511 242.165 322.074 242.244 325.632C242.281 327.308 241.66 327.862 240.04 327.804C237.128 327.7 234.207 327.678 231.297 327.798C229.564 327.868 229.121 327.119 229.16 325.538C229.229 322.718 229.128 319.894 229.193 317.074C229.225 315.654 228.831 315.002 227.287 315.052C224.309 315.152 221.321 315.175 218.345 315.039C216.373 314.948 215.849 315.726 215.957 317.619C216.109 320.298 215.943 322.994 216.016 325.679C216.056 327.16 215.693 327.884 214.032 327.811C211.055 327.68 208.069 327.719 205.089 327.762C203.619 327.783 202.931 327.355 203.005 325.68C203.139 322.73 203.096 319.768 203.025 316.814C202.993 315.488 203.488 315.03 204.759 315.048C207.937 315.095 211.119 315.011 214.297 315.078C215.607 315.104 216.021 314.612 215.995 313.316C215.921 309.691 215.952 306.062 215.941 302.435L215.891 302.488Z" fill="#C9B54C"/>
<path d="M104.647 302.718C104.643 302.776 104.637 302.833 104.633 302.889C103.112 302.889 101.591 302.918 100.071 302.88C99.0093 302.852 98.4893 303.232 98.508 304.388C98.5546 307.404 98.4706 310.425 98.6053 313.437C98.628 313.944 99.4653 314.812 99.9533 314.832C103.056 314.961 106.169 314.961 109.273 314.836C109.771 314.816 110.577 313.997 110.649 313.465C110.847 312.017 110.76 310.524 110.723 309.049C110.672 307.12 111.279 304.429 110.284 303.465C109.179 302.394 106.589 302.9 104.647 302.718ZM78.8173 302.897C77.3613 302.897 75.9 302.97 74.4506 302.876C72.9466 302.777 72.2773 303.257 72.34 304.901C72.4413 307.582 72.4226 310.272 72.3373 312.954C72.2893 314.478 72.9066 314.942 74.3333 314.912C77.3106 314.846 80.2906 314.881 83.268 314.925C84.4306 314.942 84.9786 314.5 84.9533 313.28C84.9146 311.536 84.9586 309.789 84.956 308.044C84.9493 302.941 84.9466 302.941 80.0093 302.898C79.612 302.894 79.2146 302.897 78.8173 302.897ZM52.484 302.709C52.4786 302.762 52.4746 302.814 52.4693 302.868C50.8813 302.868 49.2933 302.894 47.7066 302.858C46.6493 302.833 46.116 303.205 46.1333 304.366C46.176 307.318 46.1866 310.272 46.1373 313.222C46.116 314.556 46.7133 315.001 47.94 314.964C49.724 314.908 51.512 314.921 53.2986 314.908C58.756 314.865 58.7746 314.865 58.7453 309.27C58.736 307.269 59.3613 304.47 58.3373 303.48C57.1893 302.369 54.5013 302.896 52.484 302.709ZM130.736 314.91L130.736 314.985C132.324 314.985 133.912 314.958 135.499 314.996C136.491 315.018 136.96 314.626 136.955 313.589C136.937 310.504 136.935 307.417 136.967 304.332C136.979 303.204 136.496 302.8 135.408 302.82C132.233 302.874 129.057 302.884 125.883 302.87C124.813 302.866 124.312 303.272 124.321 304.405C124.348 307.356 124.344 310.308 124.299 313.258C124.279 314.481 124.823 314.942 125.973 314.918C127.561 314.885 129.149 314.91 130.736 314.91ZM33.0626 302.808C29.0013 302.808 25.1813 302.772 21.364 302.864C20.984 302.873 20.3173 303.661 20.3026 304.104C20.204 307.253 20.1773 310.41 20.2973 313.558C20.3173 314.066 21.172 314.948 21.664 314.964C25.0333 315.078 28.4093 315.04 31.7813 314.954C32.216 314.944 33 314.386 33.0066 314.068C33.0946 310.401 33.0626 306.73 33.0626 302.808ZM202.351 315.328C198.384 315.277 194.416 315.168 190.452 315.26C189.983 315.27 189.175 316.368 189.144 316.994C188.996 319.944 189.004 322.905 189.079 325.86C189.117 327.358 188.601 327.86 187.119 327.813C184.008 327.716 180.889 327.718 177.777 327.812C176.343 327.854 175.965 327.316 176.005 325.937C176.091 322.982 175.948 320.021 176.053 317.069C176.105 315.604 175.552 315.193 174.22 315.221C171.04 315.286 167.859 315.289 164.677 315.268C163.428 315.258 162.903 315.74 162.928 317.057C162.985 320.012 162.887 322.97 162.945 325.926C162.972 327.313 162.485 327.838 161.093 327.794C158.115 327.702 155.129 327.678 152.149 327.742C150.655 327.773 150.195 327.189 150.245 325.716C150.341 322.897 150.231 320.072 150.299 317.25C150.333 315.825 149.893 315.15 148.383 315.19C145.271 315.273 142.155 315.277 139.04 315.241C137.573 315.225 137.072 315.861 137.109 317.316C137.181 320.136 137.065 322.961 137.137 325.781C137.176 327.293 136.589 327.761 135.144 327.721C132.097 327.634 129.045 327.609 126.001 327.73C124.356 327.796 123.936 327.09 123.961 325.602C124.008 322.781 123.915 319.958 123.961 317.137C123.983 315.822 123.455 315.35 122.192 315.369C119.145 315.416 116.096 315.424 113.049 315.364C111.581 315.334 111.005 316.009 111.012 317.413C111.023 320.168 110.972 322.924 111.023 325.677C111.048 327.08 110.637 327.772 109.1 327.726C106.053 327.637 103.003 327.654 99.956 327.721C98.5493 327.752 98.0973 327.153 98.1213 325.798C98.1733 322.977 98.0826 320.153 98.1373 317.333C98.1626 315.988 97.724 315.348 96.324 315.372C93.2106 315.425 90.096 315.417 86.9826 315.396C85.7 315.388 85.264 315.952 85.296 317.246C85.3653 320.133 85.2746 323.024 85.3066 325.912C85.3213 327.169 84.8853 327.742 83.5706 327.721C80.2586 327.668 76.944 327.674 73.632 327.725C72.2946 327.746 71.8946 327.07 71.9 325.865C71.9133 323.11 71.82 320.352 71.9213 317.601C71.984 315.9 71.312 315.344 69.7106 315.385C66.7973 315.461 63.88 315.448 60.9653 315.394C59.624 315.369 59.0693 315.832 59.108 317.261C59.1853 320.081 59.0666 322.905 59.1253 325.726C59.156 327.153 58.7413 327.794 57.2106 327.75C54.032 327.658 50.8493 327.685 47.6693 327.749C46.3906 327.774 45.876 327.31 45.8933 326.002C45.9306 323.046 45.8466 320.089 45.8906 317.133C45.9093 315.826 45.3693 315.316 44.1226 315.317C41.0746 315.321 38.0266 315.301 34.9786 315.238C33.7013 315.212 33.2093 315.754 33.2293 317.041C33.276 320.064 33.2053 323.089 33.2546 326.112C33.2746 327.322 32.8506 327.781 31.636 327.76C28.3893 327.704 25.14 327.692 21.896 327.772C20.4266 327.809 20.0946 327.118 20.1146 325.817C20.16 322.996 20.0666 320.172 20.1373 317.35C20.1746 315.846 19.7506 315.137 18.1266 315.184C14.4186 315.29 10.708 315.258 6.99997 315.282L7.05197 315.337L7.0533 302.773L7.00264 302.829C10.712 302.788 14.4226 302.692 18.132 302.734C19.5813 302.752 20.172 302.273 20.1386 300.777C20.0733 297.889 20.152 294.997 20.1026 292.108C20.0786 290.684 20.564 290.014 22.0653 290.054C25.244 290.141 28.4266 290.141 31.608 290.121C32.7906 290.113 33.2653 290.576 33.248 291.793C33.2066 294.817 33.288 297.842 33.2386 300.866C33.2173 302.093 33.4866 302.729 34.876 302.689C37.924 302.601 40.9746 302.602 44.0226 302.658C45.412 302.684 45.9093 302.104 45.888 300.744C45.844 297.922 45.92 295.098 45.8733 292.276C45.848 290.796 46.272 290.057 47.9146 290.12C50.96 290.236 54.0133 290.238 57.06 290.152C58.6613 290.105 59.1546 290.777 59.1253 292.293C59.0706 295.114 59.1506 297.938 59.1173 300.761C59.104 301.925 59.488 302.497 60.712 302.492C63.8253 302.476 66.9413 302.504 70.0546 302.561C71.4133 302.586 71.9333 301.992 71.9053 300.62C71.848 297.933 71.9253 295.242 71.892 292.554C71.8706 290.918 72.4 290.097 74.2066 290.169C77.2506 290.292 80.304 290.258 83.352 290.182C84.712 290.148 85.3053 290.658 85.2973 292.021C85.2813 294.776 85.3546 297.533 85.2826 300.286C85.24 301.906 85.8026 302.596 87.4653 302.557C90.2466 302.492 93.0306 302.588 95.8133 302.628C97.42 302.65 98.248 302.042 98.172 300.234C98.0613 297.617 98.2053 294.99 98.1266 292.372C98.0813 290.845 98.5666 290.154 100.163 290.194C103.144 290.27 106.129 290.273 109.109 290.184C110.628 290.14 111.093 290.806 111.064 292.22C111.007 294.908 111.06 297.597 110.995 300.285C110.959 301.77 111.449 302.55 113.036 302.536C115.951 302.508 118.868 302.553 121.783 302.61C123.345 302.64 124.06 302.056 123.992 300.345C123.887 297.661 124.04 294.968 123.971 292.281C123.932 290.752 124.396 290.105 126.013 290.164C129.125 290.277 132.244 290.238 135.359 290.188C136.643 290.166 137.144 290.677 137.123 291.968C137.08 294.589 137.124 297.21 137.125 299.832C137.128 302.668 137.135 302.665 139.849 302.692C143.295 302.725 146.739 302.781 150.185 302.826C150.231 306.377 150.223 309.932 150.371 313.48C150.393 314.024 151.113 314.982 151.535 314.994C154.84 315.098 158.153 315.068 161.457 314.933C161.895 314.914 162.647 314.085 162.664 313.612C162.773 310.461 162.775 307.302 162.668 304.152C162.652 303.696 161.873 302.893 161.435 302.884C157.667 302.801 153.895 302.864 150.124 302.882C150.171 299.392 150.284 295.898 150.236 292.408C150.215 290.813 150.631 290.084 152.343 290.134C155.189 290.218 158.047 290.193 160.892 290.044C162.529 289.958 162.972 290.638 162.94 292.15C162.88 294.973 162.993 297.8 162.912 300.62C162.867 302.161 163.335 302.746 164.939 302.716C168.645 302.642 172.356 302.761 176.067 302.8C176.085 306.289 176.145 309.781 176.097 313.27C176.08 314.548 176.448 315.077 177.78 315.049C180.957 314.981 184.137 315.006 187.316 315.058C188.497 315.077 189.003 314.626 188.988 313.414C188.951 310.393 188.933 307.37 188.985 304.349C189.008 303.089 188.484 302.744 187.317 302.768C183.545 302.844 179.772 302.838 175.999 302.865C176.007 299.305 176.076 295.742 175.997 292.184C175.96 290.508 176.581 289.954 178.201 290.012C181.113 290.116 184.035 290.138 186.944 290.018C188.679 289.948 189.12 290.697 189.081 292.278C189.012 295.098 189.113 297.922 189.048 300.742C189.016 302.162 189.411 302.814 190.955 302.764C193.932 302.664 196.92 302.641 199.896 302.777C201.868 302.868 202.392 302.09 202.284 300.197C202.132 297.518 202.299 294.822 202.225 292.137C202.185 290.656 202.548 289.932 204.211 290.005C207.187 290.136 210.172 290.097 213.152 290.054C214.623 290.033 215.311 290.461 215.236 292.136C215.103 295.086 215.145 298.048 215.216 301.002C215.248 302.328 214.753 302.786 213.483 302.768C210.304 302.721 207.123 302.805 203.944 302.738C202.635 302.712 202.22 303.204 202.247 304.5C202.32 308.125 202.289 311.754 202.3 315.381L202.351 315.328Z" fill="#C9B54C"/>
<path d="M526.921 327.378C522.976 327.428 519.03 327.512 515.086 327.462C514.729 327.458 514.094 326.596 514.08 326.117C513.985 322.904 513.961 319.684 514.084 316.473C514.102 315.968 514.962 315.092 515.458 315.073C518.889 314.946 522.329 314.956 525.761 315.061C526.177 315.074 526.909 315.92 526.917 316.389C526.981 320.069 526.904 323.753 526.87 327.434C526.87 327.433 526.921 327.378 526.921 327.378Z" fill="#C9B54C"/>
<path d="M424.14 314.952C424.12 318.5 424.046 322.05 424.106 325.596C424.134 327.264 423.516 327.823 421.886 327.762C418.918 327.648 415.942 327.655 412.972 327.744C411.514 327.787 410.967 327.307 411.002 325.802C411.084 322.187 411.044 318.571 411.054 314.955L411.003 315.01C415.398 315.01 419.792 315.011 424.187 315.011L424.14 314.952Z" fill="#C9B54C"/>
<path d="M450.021 314.988C449.964 318.472 449.796 321.959 449.893 325.439C449.944 327.243 449.363 327.824 447.641 327.767C444.731 327.668 441.815 327.719 438.901 327.74C437.929 327.747 437.188 327.596 437.209 326.361C437.276 322.54 437.321 318.719 437.376 314.895C437.379 314.893 437.327 314.948 437.327 314.948C441.58 314.979 445.829 315.012 450.079 315.045L450.021 314.988Z" fill="#C9B54C"/>
<path d="M450.079 315.045C450.019 311.361 449.912 307.677 449.961 303.996C449.967 303.565 450.819 302.788 451.289 302.779C454.728 302.712 458.171 302.761 461.607 302.892C462.035 302.908 462.787 303.612 462.797 304.013C462.892 307.555 462.852 311.099 462.852 314.987C458.441 314.987 454.231 314.987 450.02 314.987C450.021 314.988 450.079 315.045 450.079 315.045Z" fill="#C9B54C"/>
<path d="M424.13 315.276C424.07 311.592 423.963 307.908 424.013 304.227C424.018 303.796 424.87 303.019 425.341 303.01C428.779 302.943 432.222 302.992 435.658 303.123C436.086 303.139 436.838 303.843 436.849 304.244C436.943 307.786 436.903 311.33 436.903 315.218C432.493 315.218 428.282 315.218 424.071 315.218C424.073 315.219 424.13 315.276 424.13 315.276Z" fill="#C9B54C"/>
<path d="M469.071 327.525C467.551 327.525 466.017 327.645 464.52 327.459C463.995 327.395 463.165 326.599 463.147 326.111C463.025 322.899 463.035 319.679 463.147 316.467C463.163 316.017 463.968 315.229 464.419 315.219C467.653 315.159 470.895 315.198 474.125 315.374C474.635 315.402 475.496 316.274 475.519 316.785C475.649 319.794 475.571 322.813 475.584 325.827C475.588 326.914 475.113 327.418 474.025 327.399C472.375 327.37 470.723 327.391 469.071 327.391C469.071 327.435 469.071 327.481 469.071 327.525Z" fill="#C9B54C"/>
<path d="M475.581 290.294C475.581 294.02 475.632 297.433 475.521 300.84C475.505 301.302 474.695 302.098 474.217 302.126C470.916 302.318 467.605 302.39 464.297 302.377C463.889 302.376 463.143 301.652 463.132 301.248C463.04 297.64 463.079 294.028 463.079 290.294H475.581Z" fill="#C9B54C"/>
<path d="M527.386 302.402C523.441 302.451 519.495 302.535 515.551 302.486C515.194 302.482 514.559 301.619 514.545 301.14C514.45 297.927 514.426 294.707 514.549 291.496C514.567 290.991 515.427 290.115 515.923 290.096C519.354 289.97 522.794 289.979 526.226 290.084C526.642 290.098 527.374 290.943 527.382 291.412C527.446 295.092 527.369 298.776 527.335 302.458C527.335 302.456 527.386 302.402 527.386 302.402Z" fill="#C9B54C"/>
<path d="M449.921 302.398C445.976 302.448 442.03 302.532 438.086 302.482C437.729 302.478 437.094 301.616 437.08 301.137C436.985 297.924 436.961 294.704 437.084 291.493C437.102 290.988 437.962 290.112 438.458 290.093C441.889 289.966 445.329 289.976 448.761 290.081C449.177 290.094 449.909 290.94 449.917 291.409C449.981 295.089 449.904 298.773 449.87 302.454C449.87 302.453 449.921 302.398 449.921 302.398Z" fill="#C9B54C"/>
<path d="M424.921 302.398C420.976 302.448 417.03 302.532 413.086 302.482C412.729 302.478 412.094 301.616 412.08 301.137C411.985 297.924 411.961 294.704 412.084 291.493C412.102 290.988 412.962 290.112 413.458 290.093C416.889 289.966 420.329 289.976 423.761 290.081C424.177 290.094 424.909 290.94 424.917 291.409C424.981 295.089 424.904 298.773 424.87 302.454C424.87 302.453 424.921 302.398 424.921 302.398Z" fill="#C9B54C"/>
<path d="M508.11 314.954C506.459 314.954 504.808 314.926 503.158 314.964C502.135 314.987 501.764 314.536 501.774 313.522C501.802 310.443 501.803 307.362 501.752 304.283C501.734 303.103 502.306 302.798 503.332 302.795C506.502 302.787 509.671 302.763 512.839 302.691C514.023 302.666 514.502 303.142 514.487 304.347C514.448 307.359 514.462 310.372 514.495 313.386C514.507 314.555 514.087 315.095 512.863 315.036C511.282 314.96 509.694 315.018 508.11 315.018V314.954Z" fill="#C9B54C"/>
<path d="M495.357 302.331C493.705 302.331 492.041 302.444 490.409 302.264C489.889 302.207 489.062 301.384 489.042 300.884C488.921 297.808 488.928 294.721 489.061 291.645C489.082 291.153 489.932 290.313 490.43 290.288C493.661 290.127 496.901 290.163 500.138 290.097C501.105 290.079 501.61 290.379 501.597 291.459C501.561 294.675 501.64 297.893 501.512 301.104C501.493 301.577 500.636 302.347 500.105 302.405C498.54 302.581 496.942 302.468 495.357 302.468C495.357 302.423 495.357 302.376 495.357 302.331Z" fill="#C9B54C"/>
<path d="M501.57 315.317C501.57 319.092 501.602 322.764 501.522 326.434C501.514 326.817 500.845 327.504 500.475 327.508C497.039 327.552 493.601 327.525 490.169 327.369C489.757 327.35 489.065 326.452 489.046 325.941C488.937 322.929 488.934 319.908 489.037 316.896C489.055 316.357 489.718 315.398 490.106 315.386C493.85 315.27 497.598 315.317 501.57 315.317Z" fill="#C9B54C"/>
<path d="M475.839 314.832C475.839 311.039 475.796 307.641 475.899 304.249C475.911 303.876 476.746 303.239 477.222 303.216C480.455 303.06 483.695 302.975 486.931 303.036C487.399 303.044 488.226 303.939 488.248 304.453C488.378 307.396 488.38 310.351 488.258 313.295C488.236 313.824 487.446 314.748 486.986 314.764C483.368 314.887 479.744 314.832 475.839 314.832Z" fill="#C9B54C"/>
<path d="M527 291H7V285H527V291Z" fill="#C9B54C"/>
<path d="M282.233 36.4788C280.997 38.2721 279.761 40.0654 278.532 41.8548C276.768 45.7761 273.477 49.9214 280.097 52.6334L280.07 52.6228C282.494 57.9961 277.821 56.3134 275.625 57.0934C271.905 56.9761 268.184 56.8588 264.464 56.7414C262.274 54.3321 260.044 54.3254 257.773 56.6254C254.773 56.5201 251.773 56.4134 248.774 56.3081C240.104 53.1654 231.149 55.0041 222.312 54.7961C216.297 54.6428 210.284 54.4894 204.269 54.3361C195.264 50.8561 186 52.6908 176.81 52.9974C175.03 52.9748 173.25 52.9521 171.468 52.9281C168.206 52.8841 164.948 52.8401 161.689 52.7974C136.452 52.9761 111.214 53.0948 85.9784 53.3694C77.7691 53.4588 69.6877 54.4228 62.4251 58.8414C56.8851 62.2108 53.8784 67.6294 53.8384 73.5308C53.7944 80.1134 61.4064 75.7308 64.2237 78.9788C62.4877 83.1188 57.2437 80.3121 55.0797 83.6001C53.5797 83.5041 52.0797 83.4081 50.5797 83.3121C47.6371 81.8494 44.8824 76.9601 41.5358 82.8148C40.1344 82.9934 38.7344 83.1721 37.3318 83.3508C37.2451 80.4401 37.1571 77.5294 37.0704 74.6174C36.9184 73.8814 37.1077 73.2454 37.6384 72.7121C38.3371 71.4441 39.0371 70.1774 39.7371 68.9108L40.0224 68.3948C40.5651 67.5734 41.1077 66.7508 41.6491 65.9281C48.0397 54.9601 58.6997 50.6481 70.2904 49.7188C110.913 46.4628 151.516 45.4068 192.232 49.9174C210.188 51.9068 228.501 50.6761 246.653 50.9068C249.102 53.3548 251.902 52.7108 254.73 51.8228C266.178 50.5561 280.073 36.9641 281.857 25.3841C282.798 19.2708 278.82 17.7908 274.126 16.8534C262.828 14.5961 251.341 14.8681 239.918 14.2921C239.166 14.1668 234.5 14.1668 231.042 14.5188C220.16 16.3574 209.294 18.3041 198.384 19.9534C195.857 20.3361 192.252 23.9134 190.822 19.7508C189.688 16.4494 193.621 15.5521 196.41 14.3748C209.442 8.87743 223.14 6.2081 237.057 4.62676C290.394 -1.43723 343.676 -2.47991 396.294 10.0134C431.768 18.4348 460.117 38.8361 483.537 66.3028C488.472 72.0894 493.588 76.4321 501.414 78.2854C514.718 81.4348 525.946 89.3214 537.186 96.7961C539.05 98.0361 541.552 99.9228 539.87 104.321C493.429 82.8694 444.972 75.8068 394.333 87.0134C403.748 78.8174 408.473 76.6948 422.833 74.4921C433.001 72.9334 443.277 72.0761 454.65 70.7734C451.141 65.8508 446.245 63.2734 447.606 56.4668C448.712 50.9454 443.53 46.4134 439.085 42.9534C424.456 31.5681 407.72 23.7588 389.632 21.4841C368.024 18.7654 346.285 16.4481 324.29 16.6188C307.533 16.7494 293.622 20.2254 283.924 34.6948C283.361 35.2894 282.797 35.8841 282.233 36.4788Z" fill="#C9B54C"/>
<path d="M162.236 76.844C191.672 76.6213 221.146 77.7653 250.056 82.2173C265.986 84.6707 282.169 86.2147 297.941 89.584C300.514 90.1347 323.113 93.1787 322.417 94.9733C321.72 96.7667 298.748 94.004 296.336 93.6987C246.796 87.4347 197.238 81.3787 146.9 83.452C139.112 83.7733 131.78 83.292 132.956 92.9493C133.176 94.752 131.345 97.6827 129.6 96.7773C122.796 93.2493 127.632 84.344 119.928 80.3173C118.366 79.5027 122.852 76.8653 125.93 76.8573C138.032 76.824 150.134 76.844 162.236 76.844Z" fill="#C9B54C"/>
<path d="M270.557 59.1565C272.753 58.3765 282.495 57.9965 280.069 52.6218C312.247 54.9552 385.003 60.3205 417.18 62.6525C383.372 65.8792 304.163 61.3592 270.557 59.1565Z" fill="#C9B54C"/>
<path d="M37.0704 74.6181C37.1571 77.5287 37.2451 80.4394 37.3317 83.3501C25.8797 87.9394 14.4264 92.5287 0.211731 98.2247C12.0971 85.9501 25.6317 81.9221 37.0704 74.6181Z" fill="#C9B54C"/>
<path d="M176.81 52.9971C185.999 52.6905 195.263 50.8558 204.269 54.3371C195.058 55.0811 185.894 54.8638 176.81 52.9971Z" fill="#B29600"/>
<path d="M222.312 54.7961C231.149 55.0041 240.104 53.1654 248.774 56.3081C239.889 56.9214 231.05 56.7334 222.312 54.7961Z" fill="#B29600"/>
<path d="M55.0792 83.5996C57.2445 80.3116 62.4885 83.1183 64.2232 78.9796C68.1072 81.3223 67.3432 83.4116 63.4579 84.1436C60.7925 84.6449 57.8805 83.8276 55.0792 83.5996Z" fill="#C9B54C"/>
<path d="M280.097 52.6336C273.477 49.9216 276.768 45.7763 278.532 41.8549C278.466 45.5349 277.904 49.2856 280.097 52.6336Z" fill="#B29600"/>
<path d="M41.5361 82.8141C44.8815 76.9608 47.6361 81.8488 50.5801 83.3114C47.5095 84.1541 44.4735 84.3781 41.5361 82.8141Z" fill="#C9B54C"/>
<path d="M161.689 52.7973C164.947 52.8413 168.207 52.884 171.469 52.928C168.193 54.1253 164.933 54.0707 161.689 52.7973Z" fill="#B29600"/>
<path d="M254.73 51.8234C251.902 52.7101 249.102 53.3541 246.652 50.9074C249.45 50.2901 252.214 49.9648 254.73 51.8234Z" fill="#B29600"/>
<path d="M257.773 56.6249C260.044 54.3262 262.275 54.3316 264.464 56.7409C262.233 56.7022 260.004 56.6636 257.773 56.6249Z" fill="#B29600"/>
<path d="M39.7364 68.9103C39.0364 70.1769 38.3377 71.4449 37.6377 72.7116C37.3297 70.8889 38.3097 69.7756 39.7364 68.9103Z" fill="#C9B54C"/>
<path d="M41.6492 65.9284C41.1065 66.7511 40.5652 67.5737 40.0225 68.3951C40.5652 67.5724 41.1065 66.7511 41.6492 65.9284Z" fill="#B29600"/>
<path d="M282.233 36.4788C282.797 35.8841 283.361 35.2894 283.924 34.6948C283.361 35.2894 282.797 35.8841 282.233 36.4788Z" fill="#B29600"/>
<path d="M74.1718 54.1689L356.644 61.3422L354.85 58.2036L278.628 51.4782L251.726 50.1342L145.014 46.5462L74.1718 54.1689Z" fill="#C9B54C"/>
<path d="M282.663 51.9271C282.663 51.9271 276.386 27.7151 305.978 19.6444C335.571 11.5737 312.705 8.43507 312.705 8.43507L289.389 15.6097L283.561 25.9217L270.558 46.5471L275.49 53.2724L282.663 51.9271Z" fill="#C9B54C"/>
<path d="M42.8424 260.84C42.6921 262.919 41.9226 264.555 40.5341 265.749C39.1544 266.943 37.3326 267.54 35.0685 267.54C32.5921 267.54 30.642 266.708 29.2181 265.046C27.8031 263.374 27.0955 261.084 27.0955 258.174V256.993C27.0955 255.136 27.4228 253.5 28.0772 252.085C28.7317 250.67 29.6647 249.586 30.8764 248.835C32.0969 248.074 33.5119 247.694 35.1215 247.694C37.3502 247.694 39.1456 248.291 40.5076 249.485C41.8696 250.679 42.6567 252.355 42.8689 254.512H38.8891C38.7918 253.265 38.4425 252.363 37.8411 251.806C37.2485 251.24 36.342 250.957 35.1215 250.957C33.7949 250.957 32.8 251.435 32.1367 252.39C31.4822 253.336 31.1461 254.809 31.1284 256.808V258.267C31.1284 260.354 31.4424 261.88 32.0703 262.844C32.7071 263.808 33.7065 264.29 35.0685 264.29C36.2978 264.29 37.2132 264.011 37.8146 263.454C38.4248 262.888 38.7741 262.017 38.8626 260.84H42.8424ZM68.0464 264.077H76.4969V267.274H64.0666V247.959H68.0464V264.077ZM108.573 263.295H101.595L100.268 267.274H96.0363L103.227 247.959H106.915L114.145 267.274H109.913L108.573 263.295ZM102.669 260.071H107.498L105.071 252.841L102.669 260.071ZM144.575 262.207C144.575 261.455 144.31 260.88 143.779 260.482C143.249 260.075 142.294 259.651 140.914 259.209C139.534 258.758 138.442 258.315 137.637 257.882C135.444 256.697 134.347 255.101 134.347 253.093C134.347 252.049 134.639 251.121 135.223 250.307C135.815 249.485 136.66 248.843 137.757 248.384C138.862 247.924 140.1 247.694 141.471 247.694C142.851 247.694 144.08 247.946 145.159 248.45C146.238 248.945 147.074 249.648 147.666 250.559C148.268 251.47 148.569 252.505 148.569 253.663H144.589C144.589 252.779 144.31 252.094 143.753 251.607C143.196 251.112 142.413 250.864 141.405 250.864C140.432 250.864 139.676 251.072 139.136 251.488C138.597 251.895 138.327 252.434 138.327 253.106C138.327 253.734 138.641 254.26 139.269 254.685C139.906 255.109 140.839 255.507 142.068 255.879C144.332 256.56 145.982 257.404 147.016 258.413C148.051 259.421 148.569 260.677 148.569 262.18C148.569 263.852 147.936 265.165 146.671 266.12C145.407 267.067 143.704 267.54 141.564 267.54C140.078 267.54 138.725 267.27 137.505 266.731C136.284 266.182 135.351 265.435 134.705 264.489C134.069 263.542 133.75 262.446 133.75 261.199H137.743C137.743 263.33 139.017 264.396 141.564 264.396C142.51 264.396 143.249 264.206 143.779 263.825C144.31 263.436 144.575 262.897 144.575 262.207ZM179.902 262.207C179.902 261.455 179.636 260.88 179.106 260.482C178.575 260.075 177.62 259.651 176.24 259.209C174.86 258.758 173.768 258.315 172.963 257.882C170.77 256.697 169.673 255.101 169.673 253.093C169.673 252.049 169.965 251.121 170.549 250.307C171.141 249.485 171.986 248.843 173.083 248.384C174.188 247.924 175.426 247.694 176.797 247.694C178.177 247.694 179.406 247.946 180.485 248.45C181.564 248.945 182.4 249.648 182.993 250.559C183.594 251.47 183.895 252.505 183.895 253.663H179.915C179.915 252.779 179.636 252.094 179.079 251.607C178.522 251.112 177.739 250.864 176.731 250.864C175.758 250.864 175.002 251.072 174.462 251.488C173.923 251.895 173.653 252.434 173.653 253.106C173.653 253.734 173.967 254.26 174.595 254.685C175.232 255.109 176.165 255.507 177.394 255.879C179.658 256.56 181.308 257.404 182.342 258.413C183.377 259.421 183.895 260.677 183.895 262.18C183.895 263.852 183.262 265.165 181.998 266.12C180.733 267.067 179.03 267.54 176.89 267.54C175.404 267.54 174.051 267.27 172.831 266.731C171.61 266.182 170.677 265.435 170.032 264.489C169.395 263.542 169.076 262.446 169.076 261.199H173.069C173.069 263.33 174.343 264.396 176.89 264.396C177.836 264.396 178.575 264.206 179.106 263.825C179.636 263.436 179.902 262.897 179.902 262.207ZM209.444 267.274H205.464V247.959H209.444V267.274ZM246.919 260.84C246.768 262.919 245.999 264.555 244.61 265.749C243.231 266.943 241.409 267.54 239.145 267.54C236.668 267.54 234.718 266.708 233.294 265.046C231.879 263.374 231.172 261.084 231.172 258.174V256.993C231.172 255.136 231.499 253.5 232.154 252.085C232.808 250.67 233.741 249.586 234.953 248.835C236.173 248.074 237.588 247.694 239.198 247.694C241.427 247.694 243.222 248.291 244.584 249.485C245.946 250.679 246.733 252.355 246.945 254.512H242.965C242.868 253.265 242.519 252.363 241.917 251.806C241.325 251.24 240.418 250.957 239.198 250.957C237.871 250.957 236.876 251.435 236.213 252.39C235.559 253.336 235.222 254.809 235.205 256.808V258.267C235.205 260.354 235.519 261.88 236.147 262.844C236.783 263.808 237.783 264.29 239.145 264.29C240.374 264.29 241.289 264.011 241.891 263.454C242.501 262.888 242.85 262.017 242.939 260.84H246.919ZM308.802 264.834C308.086 265.691 307.073 266.359 305.764 266.837C304.455 267.305 303.005 267.54 301.413 267.54C299.741 267.54 298.273 267.177 297.008 266.452C295.753 265.718 294.78 264.657 294.09 263.268C293.409 261.88 293.06 260.248 293.042 258.373V257.06C293.042 255.132 293.365 253.464 294.01 252.058C294.665 250.643 295.602 249.564 296.823 248.821C298.052 248.07 299.489 247.694 301.134 247.694C303.425 247.694 305.216 248.242 306.507 249.339C307.798 250.427 308.563 252.014 308.802 254.101H304.928C304.751 252.996 304.358 252.186 303.748 251.674C303.146 251.161 302.315 250.904 301.254 250.904C299.9 250.904 298.87 251.413 298.163 252.43C297.455 253.447 297.097 254.959 297.088 256.967V258.2C297.088 260.226 297.473 261.756 298.242 262.791C299.012 263.825 300.139 264.343 301.625 264.343C303.12 264.343 304.185 264.024 304.822 263.388V260.058H301.2V257.126H308.802V264.834ZM341.554 263.295H334.576L333.25 267.274H329.018L336.208 247.959H339.896L347.126 267.274H342.894L341.554 263.295ZM335.651 260.071H340.48L338.052 252.841L335.651 260.071ZM374.692 260.204H371.521V267.274H367.541V247.959H374.718C377 247.959 378.76 248.468 379.998 249.485C381.236 250.502 381.855 251.939 381.855 253.796C381.855 255.114 381.568 256.215 380.993 257.099C380.427 257.975 379.565 258.674 378.406 259.195L382.585 267.089V267.274H378.313L374.692 260.204ZM371.521 256.98H374.731C375.731 256.98 376.505 256.728 377.053 256.224C377.601 255.711 377.875 255.008 377.875 254.114C377.875 253.204 377.615 252.487 377.093 251.965C376.58 251.444 375.788 251.183 374.718 251.183H371.521V256.98ZM414.409 263.295H407.431L406.104 267.274H401.872L409.062 247.959H412.75L419.98 267.274H415.749L414.409 263.295ZM408.505 260.071H413.334L410.906 252.841L408.505 260.071ZM455.386 264.834C454.67 265.691 453.657 266.359 452.348 266.837C451.039 267.305 449.589 267.54 447.997 267.54C446.325 267.54 444.857 267.177 443.593 266.452C442.337 265.718 441.364 264.657 440.674 263.268C439.993 261.88 439.644 260.248 439.626 258.373V257.06C439.626 255.132 439.949 253.464 440.594 252.058C441.249 250.643 442.186 249.564 443.407 248.821C444.636 248.07 446.073 247.694 447.718 247.694C450.009 247.694 451.8 248.242 453.091 249.339C454.382 250.427 455.147 252.014 455.386 254.101H451.512C451.336 252.996 450.942 252.186 450.332 251.674C449.73 251.161 448.899 250.904 447.838 250.904C446.485 250.904 445.454 251.413 444.747 252.43C444.039 253.447 443.681 254.959 443.672 256.967V258.2C443.672 260.226 444.057 261.756 444.826 262.791C445.596 263.825 446.723 264.343 448.209 264.343C449.704 264.343 450.77 264.024 451.406 263.388V260.058H447.785V257.126H455.386V264.834ZM488.855 258.904H481.214V264.077H490.182V267.274H477.234V247.959H490.155V251.183H481.214V255.786H488.855V258.904Z" fill="#C9B54C"/>
<path d="M25.7832 197.691C41.1365 197.046 53.3165 191.234 60.1939 177.619C67.5912 162.976 67.4765 147.891 57.8445 134.184C50.2725 123.407 38.7099 119.871 25.7832 119.535V197.691ZM25.6965 207.994V236.714H13.6139V108.016C26.6939 107.768 39.2219 109.646 51.1032 115.012C59.3085 118.719 66.3419 123.964 71.1899 131.675C83.9499 151.97 81.8325 189.44 47.9472 202.278C45.8659 203.067 43.7819 203.851 41.3325 204.776C46.7365 210.862 51.8712 217.067 57.4739 222.816C61.7512 227.204 67.3592 227.876 73.2312 226.638C74.1272 226.448 75.0552 226.41 76.2272 226.27C76.9605 229.684 77.6632 232.951 78.4205 236.48C66.9739 239.548 56.4699 238.566 47.8552 230.447C42.3205 225.232 37.8459 218.906 32.7565 213.202C30.8712 211.09 28.5859 209.336 26.4819 207.419C26.2205 207.61 25.9579 207.802 25.6965 207.994Z" fill="#C9B54C"/>
<path d="M274.068 236.832H261.903V133.872C258.04 137.95 254.568 141.616 250.375 146.041C246.295 141.21 243.05 137.368 239.804 133.525C239.408 133.781 239.011 134.036 238.614 134.29V236.741H226.415V107.44C234.471 115.297 242.214 122.849 250.756 131.18C258.33 123.001 265.667 115.076 273.006 107.15C273.359 107.425 273.714 107.7 274.068 107.976V236.832Z" fill="#C9B54C"/>
<path d="M113.816 197.561C113.946 196.936 114.12 196.49 114.12 196.045C114.129 172.47 114.156 148.896 114.09 125.322C114.078 121.121 111.469 118.274 107.92 118.061C104.184 117.837 101.266 120.553 100.748 124.8C100.634 125.73 100.672 126.682 100.672 127.625C100.668 149.785 100.665 171.945 100.677 194.105C100.677 195.236 100.798 196.368 100.868 197.561H113.816ZM126.701 236.806H114.222V208.612H100.685V236.764H88.6489C88.5462 236.288 88.3716 235.856 88.3716 235.422C88.3956 198.86 88.3342 162.296 88.5302 125.733C88.5876 114.976 96.4729 107.016 106.461 106.756C117.533 106.468 125.65 113.876 126.593 125.152C126.69 126.325 126.696 127.509 126.696 128.688C126.701 163.601 126.701 198.513 126.701 233.426C126.701 234.468 126.701 235.508 126.701 236.806Z" fill="#C9B54C"/>
<path d="M445.398 118.724V195.746C454.085 192.006 458.366 185.604 458.458 176.464C458.563 165.986 458.587 155.506 458.618 145.028C458.638 138.434 458.619 131.84 458.586 125.246C458.57 121.97 457.298 119.321 453.851 118.805C451.131 118.398 448.302 118.724 445.398 118.724ZM445.145 236.836H433.105V108.512C441.643 108.512 450.273 107.74 458.69 108.744C466.143 109.633 471.037 116.512 471.103 124.237C471.253 141.566 471.329 158.901 471.041 176.228C470.898 184.829 468.194 192.656 460.802 198.2C471.258 209.326 471.593 222.778 471.063 236.717H458.755C458.134 225.834 460.377 214.224 452.157 204.832C451.727 204.938 451.398 204.994 451.087 205.102C446.189 206.809 444.634 210.121 445.017 215.326C445.533 222.346 445.145 229.433 445.145 236.836Z" fill="#C9B54C"/>
<path d="M313.527 172.197H313.519C313.514 156.636 313.556 141.076 313.487 125.514C313.467 121.097 310.835 118.192 307.143 118.058C303.284 117.918 300.46 120.816 300.088 125.314C300.04 125.9 300.055 126.492 300.055 127.081C300.054 157.142 300.044 187.202 300.08 217.264C300.082 218.892 300.239 220.589 300.712 222.134C301.819 225.757 305.194 227.413 308.852 226.353C311.88 225.476 313.499 222.916 313.511 218.526C313.552 203.084 313.527 187.64 313.527 172.197ZM326.079 172.313C326.079 187.286 326.172 202.26 326.039 217.233C325.974 224.517 323.651 230.964 317.154 235.05C304.474 243.028 288.466 234.64 287.93 219.664C287.604 210.597 287.728 201.512 287.731 192.434C287.739 170.388 287.631 148.34 287.895 126.296C288.036 114.473 295.991 106.692 307.042 106.748C317.798 106.804 325.874 115.068 326.019 126.685C326.208 141.893 326.066 157.104 326.066 172.313H326.079Z" fill="#C9B54C"/>
<path d="M406.25 172.58C406.25 157.726 406.252 142.873 406.244 128.018C406.244 126.724 406.263 125.418 406.119 124.134C405.752 120.862 403.276 118.356 400.243 118.072C397.052 117.774 394.316 119.606 393.327 122.884C392.959 124.101 392.795 125.424 392.794 126.698C392.766 156.996 392.763 187.292 392.798 217.589C392.799 219.1 392.954 220.682 393.42 222.106C394.458 225.272 396.736 226.874 400.144 226.577C403.552 226.281 405.458 224.248 406.051 221.018C406.324 219.528 406.242 217.964 406.243 216.433C406.255 201.816 406.25 187.197 406.25 172.58ZM380.568 172.138C380.568 156.694 380.398 141.248 380.627 125.808C380.788 114.858 388.631 106.932 398.832 106.752C409.702 106.56 417.726 113.925 418.675 125.056C418.864 127.282 418.799 129.533 418.799 131.772C418.806 159.95 418.826 188.129 418.788 216.308C418.778 224.268 416.478 231.26 409.156 235.493C396.652 242.722 381.04 234.316 380.688 219.882C380.302 203.977 380.6 188.054 380.6 172.138C380.59 172.138 380.579 172.138 380.568 172.138Z" fill="#C9B54C"/>
<path d="M164.813 107.929H176.821C176.934 108.948 177.122 109.841 177.12 110.733C177.088 123.94 177.185 137.15 176.929 150.353C176.732 160.612 173.478 169.693 165.576 176.78C164.661 177.598 164.306 179.441 164.3 180.813C164.217 198.148 164.245 215.484 164.245 232.82V236.781H151.778C151.778 235.406 151.778 234.046 151.778 232.686C151.778 215.468 151.75 198.25 151.814 181.032C151.821 178.893 151.312 177.382 149.625 175.854C142.814 169.684 139.437 161.544 139.113 152.669C138.573 137.858 138.965 123.013 138.965 107.977H151.326C151.326 109.609 151.322 111.103 151.328 112.596C151.366 125.568 151.292 138.541 151.496 151.51C151.598 158.012 153.753 163.906 158.07 169.052C163.412 162.932 164.708 155.721 164.773 148.197C164.878 136.169 164.809 124.14 164.813 112.112C164.813 110.828 164.813 109.544 164.813 107.929Z" fill="#C9B54C"/>
<path d="M347.428 118.368H333.926V108.057H373.237V118.417H359.97V236.664H347.428V118.368Z" fill="#C9B54C"/>
<path d="M485.104 236.955C488.067 230.288 491.315 224.033 493.666 217.457C497.762 206.001 496.151 194.5 492.69 183.161C489.472 172.617 485.974 162.155 483.003 151.544C478.707 136.199 482.894 122.297 491.111 109.287C491.603 108.508 492.923 107.891 493.891 107.841C497.298 107.668 500.718 107.775 504.735 107.775C504.138 108.975 503.659 109.809 503.295 110.692C500.352 117.813 496.752 124.752 494.676 132.119C492.059 141.409 495.258 150.487 497.89 159.416C501.072 170.212 504.574 180.928 507.342 191.829C511.379 207.729 506.478 222.012 498.212 235.441C497.728 236.227 496.371 236.836 495.387 236.887C491.979 237.063 488.556 236.955 485.104 236.955Z" fill="#C9B54C"/>
</svg>
